<svg width="52" height="50" viewBox="0 0 52 50" fill="none" xmlns="http://www.w3.org/2000/svg">
<path d="M51.4131 15.2872L51.4146 15.3042L51.4173 15.3209C51.4671 15.6325 51.7128 17.5082 50.9814 20.604V20.6042C49.9278 25.0694 47.4935 29.1351 43.9348 32.3611C43.9343 32.3616 43.9337 32.3621 43.9332 32.3625L25.8459 48.4984L8.06402 32.3617L8.06373 32.3615C4.50426 29.1363 2.06932 25.0691 1.01564 20.6042L1.01562 20.6041C0.284099 17.5068 0.530077 15.6315 0.580527 15.3212L0.583365 15.3038L0.584964 15.2862C1.32442 7.13658 7.06779 1.326 14.158 1.326C18.8204 1.326 22.9903 3.82105 25.4233 7.98428L25.8503 8.71489L26.2843 7.98842C28.7375 3.88157 33.0918 1.327 37.839 1.327C44.9302 1.327 50.6726 7.13756 51.4131 15.2872ZM25.85 11.2377L25.3897 10.1466L25.3896 10.1464C23.3609 5.34408 19.0646 2.326 14.158 2.326C7.49348 2.326 2.25124 7.89151 1.57828 15.399L1.56543 15.4856L1.56335 15.4996L1.56206 15.5137C1.56354 15.4975 1.4859 15.9644 1.50223 16.7995C1.51852 17.6329 1.62696 18.8407 1.98939 20.3749C2.9988 24.6503 5.33407 28.538 8.73629 31.6205L25.519 46.8513L25.8522 47.1536L26.1879 46.8541L43.2639 31.6191L43.2667 31.6166C46.663 28.54 48.9993 24.6512 50.0077 20.3758C50.3701 18.8416 50.4785 17.6336 50.4947 16.7993C50.5027 16.3822 50.4878 16.0589 50.47 15.8352C50.4546 15.6414 50.4362 15.5159 50.4327 15.4945C49.7468 7.89473 44.5055 2.327 37.84 2.327C32.8325 2.327 28.3122 5.40537 26.3104 10.1465L26.3103 10.1466L25.85 11.2377Z" fill="white" stroke="white"/>
</svg>
