<svg width="50" height="39" viewBox="0 0 50 39" fill="none" xmlns="http://www.w3.org/2000/svg">
<path d="M48.9145 17.368C49.8987 16.6007 50.2461 15.4746 49.8216 14.4277C49.3961 13.3809 48.2877 12.6336 46.9261 12.475L34.8196 11.0677C34.304 11.0076 33.8584 10.7489 33.6282 10.3748L28.2157 1.59872C27.6079 0.612735 26.3744 0 24.9998 0C23.6261 0 22.3927 0.612735 21.7849 1.59872L16.3714 10.3748C16.1412 10.7489 15.6946 11.0076 15.179 11.0677L3.07248 12.4758C1.71185 12.6336 0.603517 13.3809 0.178006 14.4277C-0.246503 15.4746 0.100914 16.6007 1.08509 17.368L9.84461 24.1986C10.2181 24.4902 10.3893 24.9099 10.3012 25.32L8.23367 34.966C8.00139 36.0497 8.54705 37.1237 9.65938 37.7709C10.7707 38.4189 12.2175 38.503 13.4359 37.9896L24.2629 33.4353C24.7245 33.2415 25.2751 33.2415 25.7367 33.4353L36.5647 37.9896C37.0933 38.2123 37.666 38.322 38.2357 38.322C38.9756 38.322 39.7125 38.137 40.3412 37.7709C41.4535 37.1237 41.9992 36.0497 41.7669 34.966L39.6984 25.3208C39.6103 24.9099 39.7815 24.491 40.155 24.1994L48.9145 17.368ZM37.7261 25.5915L39.7935 35.2367C39.8977 35.7221 39.6624 36.1858 39.1638 36.4758C38.6642 36.7649 38.0424 36.8002 37.4968 36.5727L26.6688 32.0176C26.1472 31.799 25.5725 31.6884 24.9998 31.6884C24.4271 31.6884 23.8534 31.799 23.3308 32.0184L12.5048 36.5727C11.9571 36.8002 11.3354 36.7649 10.8368 36.4758C10.3382 36.1858 10.1039 35.7229 10.207 35.2367L12.2745 25.5915C12.4738 24.6608 12.0883 23.7109 11.2433 23.0525L2.48277 16.2211C2.04124 15.8767 1.89106 15.3913 2.08229 14.9227C2.27252 14.4533 2.75009 14.1314 3.35982 14.0601L15.4654 12.6528C16.6338 12.5174 17.644 11.9311 18.1656 11.0837L23.5791 2.30757C23.8514 1.86544 24.3831 1.60192 24.9988 1.60192C25.6155 1.60192 26.1462 1.86544 26.4195 2.30757L31.833 11.0837C32.3546 11.9311 33.3638 12.5174 34.5322 12.6528L46.6388 14.0601C47.2485 14.1314 47.7261 14.4533 47.9163 14.9227C48.1065 15.3913 47.9573 15.8767 47.5158 16.2211L38.7563 23.0517C37.9113 23.7109 37.5258 24.66 37.7261 25.5915Z" fill="white"/>
</svg>
