<svg width="60" height="40" viewBox="0 0 60 40" fill="none" xmlns="http://www.w3.org/2000/svg">
<path d="M50.976 16.194C50.447 7.194 43.028 0 34.085 0C28.655 0 23.397 2.663 20.139 7.008C20.064 6.969 19.985 6.942 19.909 6.906C19.711 6.81 19.51 6.719 19.305 6.637C19.191 6.592 19.077 6.551 18.962 6.511C18.759 6.44 18.553 6.377 18.343 6.32C18.228 6.289 18.114 6.257 17.998 6.231C17.773 6.18 17.543 6.141 17.311 6.106C17.21 6.091 17.111 6.071 17.009 6.06C16.677 6.023 16.341 6 16 6C11.037 6 7 10.037 7 15C7 15.127 7.008 15.252 7.016 15.377V15.381C2.857 17.649 0 22.399 0 27.154C0 34.237 5.762 40 12.845 40H37.353C37.457 40 37.56 39.994 37.664 39.986L37.726 39.978L37.86 39.986C37.962 39.994 38.064 40 38.169 40H47.972C54.604 40 60 34.604 60 27.972C60 22.483 56.173 17.56 50.976 16.194ZM47.972 38H38.169C38.11 38 38.053 37.995 37.995 37.991L37.724 37.98L37.526 37.991C37.469 37.995 37.411 38 37.353 38H12.845C6.865 38 2 33.135 2 27.154C2 23 4.705 18.688 8.433 16.901L9 16.63V16C9 15.873 9.008 15.744 9.015 15.614L9.024 15.454L9.012 15.244C9.006 15.163 9 15.082 9 15C9 11.141 12.141 8 16 8C16.309 8 16.614 8.027 16.917 8.067C16.995 8.077 17.073 8.09 17.15 8.103C17.417 8.147 17.68 8.205 17.939 8.28C17.974 8.29 18.01 8.297 18.045 8.307C18.33 8.394 18.608 8.504 18.88 8.628C18.951 8.66 19.02 8.695 19.09 8.729C19.33 8.848 19.565 8.978 19.792 9.125C21.719 10.373 23 12.538 23 15C23 15.553 23.447 16 24 16C24.553 16 25 15.553 25 15C25 12.246 23.754 9.781 21.8 8.129C24.667 4.379 29.388 2 34.085 2C41.83 2 48.262 8.135 48.933 15.888C47.911 15.816 46.381 15.779 44.85 16.012C44.304 16.095 43.929 16.605 44.012 17.151C44.087 17.646 44.513 18.001 44.999 18.001C45.049 18.001 45.1 17.997 45.15 17.989C47.377 17.652 49.698 17.968 49.834 17.987C54.49 18.872 58 23.161 58 27.972C58 33.501 53.501 38 47.972 38Z" fill="white"/>
</svg>
