<svg width="60" height="60" viewBox="0 0 60 60" fill="none" xmlns="http://www.w3.org/2000/svg">
<path d="M30 0C13.458 0 0 13.458 0 30C0 46.542 13.458 60 30 60C46.542 60 60 46.542 60 30C60 13.458 46.542 0 30 0ZM30 58C14.561 58 2 45.439 2 30C2 14.561 14.561 2 30 2C45.439 2 58 14.561 58 30C58 45.439 45.439 58 30 58Z" fill="white"/>
<path d="M31 26.021V15.879C31 15.326 30.552 14.879 30 14.879C29.448 14.879 29 15.326 29 15.879V26.021C27.601 26.385 26.506 27.48 26.142 28.879H19C18.448 28.879 18 29.326 18 29.879C18 30.432 18.448 30.879 19 30.879H26.142C26.589 32.599 28.142 33.879 30 33.879C32.206 33.879 34 32.085 34 29.879C34 28.02 32.72 26.468 31 26.021ZM30 31.879C28.897 31.879 28 30.982 28 29.879C28 28.776 28.897 27.879 30 27.879C31.103 27.879 32 28.776 32 29.879C32 30.982 31.103 31.879 30 31.879Z" fill="white"/>
<path d="M30 9.879C30.552 9.879 31 9.432 31 8.879V7.879C31 7.326 30.552 6.879 30 6.879C29.448 6.879 29 7.326 29 7.879V8.879C29 9.432 29.448 9.879 30 9.879Z" fill="white"/>
<path d="M30 49.879C29.448 49.879 29 50.326 29 50.879V51.879C29 52.432 29.448 52.879 30 52.879C30.552 52.879 31 52.432 31 51.879V50.879C31 50.326 30.552 49.879 30 49.879Z" fill="white"/>
<path d="M52 28.879H51C50.448 28.879 50 29.326 50 29.879C50 30.432 50.448 30.879 51 30.879H52C52.552 30.879 53 30.432 53 29.879C53 29.326 52.552 28.879 52 28.879Z" fill="white"/>
<path d="M9 28.879H8C7.448 28.879 7 29.326 7 29.879C7 30.432 7.448 30.879 8 30.879H9C9.552 30.879 10 30.432 10 29.879C10 29.326 9.552 28.879 9 28.879Z" fill="white"/>
<path d="M44.849 13.615L44.142 14.322C43.751 14.713 43.751 15.345 44.142 15.736C44.337 15.931 44.593 16.029 44.849 16.029C45.105 16.029 45.361 15.931 45.556 15.736L46.263 15.029C46.654 14.638 46.654 14.006 46.263 13.615C45.872 13.224 45.24 13.225 44.849 13.615Z" fill="white"/>
<path d="M14.444 44.021L13.737 44.728C13.346 45.119 13.346 45.751 13.737 46.142C13.932 46.337 14.188 46.435 14.444 46.435C14.7 46.435 14.956 46.337 15.151 46.142L15.858 45.435C16.249 45.044 16.249 44.412 15.858 44.021C15.467 43.63 14.834 43.631 14.444 44.021Z" fill="white"/>
<path d="M45.556 44.021C45.165 43.63 44.533 43.63 44.142 44.021C43.751 44.412 43.751 45.044 44.142 45.435L44.849 46.142C45.044 46.337 45.3 46.435 45.556 46.435C45.812 46.435 46.068 46.337 46.263 46.142C46.654 45.751 46.654 45.119 46.263 44.728L45.556 44.021Z" fill="white"/>
<path d="M15.151 13.615C14.76 13.224 14.128 13.224 13.737 13.615C13.346 14.006 13.346 14.638 13.737 15.029L14.444 15.736C14.639 15.931 14.895 16.029 15.151 16.029C15.407 16.029 15.663 15.931 15.858 15.736C16.249 15.345 16.249 14.713 15.858 14.322L15.151 13.615Z" fill="white"/>
</svg>
